subject01_walk1_grf.mot 
version=1 
nRows=23 
nColumns=19 
inDegrees=yes 
endheader	
time	ground_force_vx	ground_force_vy	ground_force_vz	ground_force_px	ground_force_py	ground_force_pz	1_ground_force_vx	1_ground_force_vy	1_ground_force_vz	1_ground_force_px	1_ground_force_py	1_ground_force_pz	ground_torque_x	ground_torque_y	ground_torque_z	1_ground_torque_x	1_ground_torque_y	1_ground_torque_z
-5e-07	71.4817643800833	693.2788952664577	59.37901731587249	0.3754442881304142	-0.0075	0.11255338093181845	2.4924562579897422	24.17354042705407	2.0704525774613396	0.8589639082658194	-0.0075	-0.06041443951977778	0.0	0.0	0.0	0.0	0.0	0.0
0.01666616	106.42585922892923	667.3563928281243	32.09673952417559	0.3628441737453045	-0.0075	0.11210400396109357	12.051052708159004	75.56760286801122	3.6344503353631232	0.8519731193650174	-0.0075	-0.05854270598523429	0.0	0.0	0.0	0.0	0.0	0.0
0.03333282	122.02271144781376	614.7189126743674	14.330792097735406	0.34990313962411307	-0.0075	0.11141619661897892	29.82991917513803	150.27543039270537	3.5033344606014576	0.8473846048689228	-0.0075	-0.05706321233619718	0.0	0.0	0.0	0.0	0.0	0.0
0.04999948	113.60842932038443	538.3963491252493	8.107429701290874	0.3365852343394303	-0.0075	0.11038119250669869	51.097616136725925	242.1543026480385	3.6464752942211507	0.8458677115744029	-0.0075	-0.05674134045708482	0.0	0.0	0.0	0.0	0.0	0.0
0.06666614	90.74900986039712	444.5336344835277	10.086028885528467	0.32341304624254397	-0.0075	0.10905362228446328	70.00345918285134	342.911643717586	7.780326336246618	0.8466253553626244	-0.0075	-0.05752214428316766	0.0	0.0	0.0	0.0	0.0	0.0
0.0833328	59.80295578206441	343.25004096874335	13.838341575348759	0.3104597607973135	-0.0075	0.1076006862585591	77.5255835539755	444.9723158835683	17.939339151692998	0.8475534390347573	-0.0075	-0.05895513992429947	0.0	0.0	0.0	0.0	0.0	0.0
0.09999946	32.39242970484158	243.53838224707866	14.145541156227946	0.2977202662087153	-0.0075	0.1062522333629603	72.02005374949408	541.4736572501645	31.45063966087565	0.8470509753723636	-0.0075	-0.060795971912883155	0.0	0.0	0.0	0.0	0.0	0.0
0.11666612	13.126486081514324	153.32152398848854	11.516559547988832	0.28510540324444617	-0.0075	0.10530632609572824	53.69539937551492	627.1793084836555	47.10980993093167	0.8431921773859676	-0.0075	-0.06269891089356494	0.0	0.0	0.0	0.0	0.0	0.0
0.13333278	2.8547116317943604	78.92352490987945	6.674775319605376	0.2730182383716	-0.0075	0.10499862727578996	25.210672098283954	696.993379360373	58.94660954126499	0.8351521796026515	-0.0075	-0.06435407287873009	0.0	0.0	0.0	0.0	0.0	0.0
0.14999944	-0.13918465273142908	25.955455398342178	2.2951592796651505	0.26258314603051586	-0.0075	0.10500228211202559	-3.991710795316437	744.3828718015078	65.82343594511343	0.8231753063596664	-0.0075	-0.06563111813203307	0.0	0.0	0.0	0.0	0.0	0.0
0.1666661	-0.0	0.0	0.0	0.2563925028663495	-0.0075	0.10501892499616573	-25.768228087482257	762.2050288915342	68.64487669774005	0.8085908594887414	-0.0075	-0.06652602843728482	0.0	0.0	0.0	0.0	0.0	0.0
0.18333276	-0.0	0.0	0.0	0.2570826792899409	-0.0075	0.10528822776151427	-33.960386929857414	750.0363919868925	65.42222247254425	0.792623733755879	-0.0075	-0.06721427433246148	0.0	0.0	0.0	0.0	0.0	0.0
0.19999942	-0.0	0.0	0.0	0.2661297890743133	-0.0075	0.10607820356981172	-29.90110462244236	732.5933449426374	62.95638403692107	0.7758931815585274	-0.0075	-0.06772497035519086	0.0	0.0	0.0	0.0	0.0	0.0
0.21666608	-0.0	0.0	0.0	0.28298569097404536	-0.0075	0.10726924911667825	-17.55278873179113	710.5174798009228	60.05975671698234	0.7588908262341129	-0.0075	-0.06825747511671182	0.0	0.0	0.0	0.0	0.0	0.0
0.23333274	-0.0	0.0	0.0	0.305576513974772	-0.0075	0.10850162034441548	-0.6690908830510467	685.9726578034476	56.7925190117201	0.7414607561124787	-0.0075	-0.06873420522635483	0.0	0.0	0.0	0.0	0.0	0.0
0.2499994	0.0	0.0	0.0	0.3320518855770218	-0.0075	0.10921104924698072	14.417764367808996	662.3288015406572	49.03773290068142	0.7239340084295508	-0.0075	-0.06910339941711197	0.0	0.0	0.0	0.0	0.0	0.0
0.26666606	0.0	0.0	0.0	0.3607754441732755	-0.0075	0.10924652655022231	19.562842685007272	642.2259779247881	43.90840510864123	0.7058910449709443	-0.0075	-0.06942695445509321	0.0	0.0	0.0	0.0	0.0	0.0
0.28333272	0.0	0.0	0.0	0.39172794326014787	-0.0075	0.10842954810158587	21.13329478930041	627.4901874973149	37.6339005639355	0.6883659799695089	-0.0075	-0.06976597395495512	0.0	0.0	0.0	0.0	0.0	0.0
0.29999938	0.0	0.0	0.0	0.42452859326369513	-0.0075	0.10709381401120896	18.93341705437817	617.6789665563796	32.718893039088734	0.6707940651116997	-0.0075	-0.07016138193021139	0.0	0.0	0.0	0.0	0.0	0.0
0.31666604	0.0	0.0	0.0	0.4596665054539088	-0.0075	0.10523963092235686	14.948986468745725	611.0296285431933	29.752999441215362	0.6531053101321441	-0.0075	-0.07050821836602558	0.0	0.0	0.0	0.0	0.0	0.0
0.3333327	0.0	0.0	0.0	0.49690079499226764	-0.0075	0.10367885692058126	15.11168765415806	605.3801940705566	34.61856390043887	0.6353585750154584	-0.0075	-0.07082363938171014	0.0	0.0	0.0	0.0	0.0	0.0
0.34999936	0.0	0.0	0.0	0.5362759891125627	-0.0075	0.10306807154284699	17.953100329852056	600.4071959676213	41.78210211163686	0.6175520318146777	-0.0075	-0.07107366705434372	0.0	0.0	0.0	0.0	0.0	0.0
0.36666602	0.0	0.0	0.0	0.5771517036495433	-0.0075	0.10360555205835674	27.054385983032294	596.2862429133208	54.753985446487334	0.6000949278648752	-0.0075	-0.0714174590395453	0.0	0.0	0.0	0.0	0.0	0.0
